<mxfile host="app.diagrams.net" modified="2023-09-27T20:34:59.747Z" agent="Mozilla/5.0 (Macintosh; Intel Mac OS X 10_15_7) AppleWebKit/537.36 (KHTML, like Gecko) Chrome/116.0.0.0 Safari/537.36" etag="78i_p9zkZuysHi4bBcHV" version="21.8.2" type="device">
  <diagram name="第 1 页" id="ddek-g-3Mo4RtmKmKU5W">
    <mxGraphModel dx="2621" dy="952" grid="1" gridSize="10" guides="1" tooltips="1" connect="1" arrows="1" fold="1" page="1" pageScale="1" pageWidth="827" pageHeight="1169" math="0" shadow="0">
      <root>
        <mxCell id="0" />
        <mxCell id="1" parent="0" />
        <mxCell id="HTFbjVCe_8qZXWkOA7UC-1" value="student" style="rounded=0;whiteSpace=wrap;html=1;" parent="1" vertex="1">
          <mxGeometry x="160" y="145" width="80" height="40" as="geometry" />
        </mxCell>
        <mxCell id="HTFbjVCe_8qZXWkOA7UC-10" value="Instructor" style="rounded=0;whiteSpace=wrap;html=1;" parent="1" vertex="1">
          <mxGeometry x="160" y="480" width="80" height="40" as="geometry" />
        </mxCell>
        <mxCell id="HTFbjVCe_8qZXWkOA7UC-13" value="" style="endArrow=none;html=1;rounded=0;exitX=1;exitY=0.5;exitDx=0;exitDy=0;entryX=0;entryY=0.5;entryDx=0;entryDy=0;" parent="1" source="HTFbjVCe_8qZXWkOA7UC-1" target="aR3hp8k7o6PhgEnkCMsC-13" edge="1">
          <mxGeometry width="50" height="50" relative="1" as="geometry">
            <mxPoint x="440" y="410" as="sourcePoint" />
            <mxPoint x="300" y="165" as="targetPoint" />
          </mxGeometry>
        </mxCell>
        <mxCell id="HTFbjVCe_8qZXWkOA7UC-20" value="section" style="rounded=0;whiteSpace=wrap;html=1;" parent="1" vertex="1">
          <mxGeometry x="314" y="290" width="80" height="40" as="geometry" />
        </mxCell>
        <mxCell id="HTFbjVCe_8qZXWkOA7UC-21" value="" style="endArrow=none;html=1;rounded=0;exitX=0.5;exitY=0;exitDx=0;exitDy=0;entryX=0.5;entryY=1;entryDx=0;entryDy=0;" parent="1" source="HTFbjVCe_8qZXWkOA7UC-20" target="aR3hp8k7o6PhgEnkCMsC-13" edge="1">
          <mxGeometry width="50" height="50" relative="1" as="geometry">
            <mxPoint x="404" y="430" as="sourcePoint" />
            <mxPoint x="424" y="165" as="targetPoint" />
          </mxGeometry>
        </mxCell>
        <mxCell id="HTFbjVCe_8qZXWkOA7UC-23" value="Person" style="rounded=0;whiteSpace=wrap;html=1;" parent="1" vertex="1">
          <mxGeometry x="-70" y="290" width="80" height="40" as="geometry" />
        </mxCell>
        <mxCell id="HTFbjVCe_8qZXWkOA7UC-24" value="" style="triangle;whiteSpace=wrap;html=1;rotation=135;" parent="1" vertex="1">
          <mxGeometry x="68.63" y="218.37" width="27.58" height="31.63" as="geometry" />
        </mxCell>
        <mxCell id="HTFbjVCe_8qZXWkOA7UC-25" value="" style="endArrow=none;html=1;rounded=0;entryX=0;entryY=0.5;entryDx=0;entryDy=0;exitX=0;exitY=0.5;exitDx=0;exitDy=0;" parent="1" source="HTFbjVCe_8qZXWkOA7UC-24" target="HTFbjVCe_8qZXWkOA7UC-1" edge="1">
          <mxGeometry width="50" height="50" relative="1" as="geometry">
            <mxPoint x="210" y="370" as="sourcePoint" />
            <mxPoint x="260" y="320" as="targetPoint" />
          </mxGeometry>
        </mxCell>
        <mxCell id="HTFbjVCe_8qZXWkOA7UC-27" value="" style="endArrow=none;html=1;rounded=0;entryX=1;entryY=0.5;entryDx=0;entryDy=0;exitX=1;exitY=0.5;exitDx=0;exitDy=0;" parent="1" source="HTFbjVCe_8qZXWkOA7UC-24" target="HTFbjVCe_8qZXWkOA7UC-23" edge="1">
          <mxGeometry width="50" height="50" relative="1" as="geometry">
            <mxPoint x="126" y="303" as="sourcePoint" />
            <mxPoint x="180" y="290" as="targetPoint" />
          </mxGeometry>
        </mxCell>
        <mxCell id="HTFbjVCe_8qZXWkOA7UC-28" value="" style="triangle;whiteSpace=wrap;html=1;rotation=-135;" parent="1" vertex="1">
          <mxGeometry x="59.99999999999999" y="380" width="30" height="30" as="geometry" />
        </mxCell>
        <mxCell id="HTFbjVCe_8qZXWkOA7UC-29" value="" style="endArrow=none;html=1;rounded=0;entryX=0;entryY=0.5;entryDx=0;entryDy=0;exitX=0;exitY=0.5;exitDx=0;exitDy=0;" parent="1" source="HTFbjVCe_8qZXWkOA7UC-28" target="HTFbjVCe_8qZXWkOA7UC-10" edge="1">
          <mxGeometry width="50" height="50" relative="1" as="geometry">
            <mxPoint x="210" y="425" as="sourcePoint" />
            <mxPoint x="160" y="415" as="targetPoint" />
          </mxGeometry>
        </mxCell>
        <mxCell id="HTFbjVCe_8qZXWkOA7UC-30" value="" style="endArrow=none;html=1;rounded=0;entryX=1;entryY=0.5;entryDx=0;entryDy=0;exitX=1;exitY=0.5;exitDx=0;exitDy=0;" parent="1" source="HTFbjVCe_8qZXWkOA7UC-28" target="HTFbjVCe_8qZXWkOA7UC-23" edge="1">
          <mxGeometry width="50" height="50" relative="1" as="geometry">
            <mxPoint x="126" y="358" as="sourcePoint" />
            <mxPoint x="10" y="365" as="targetPoint" />
          </mxGeometry>
        </mxCell>
        <mxCell id="aR3hp8k7o6PhgEnkCMsC-1" value="name" style="ellipse;whiteSpace=wrap;html=1;" parent="1" vertex="1">
          <mxGeometry x="-130" y="210" width="80" height="40" as="geometry" />
        </mxCell>
        <mxCell id="aR3hp8k7o6PhgEnkCMsC-2" value="gender" style="ellipse;whiteSpace=wrap;html=1;" parent="1" vertex="1">
          <mxGeometry x="-200" y="290" width="80" height="40" as="geometry" />
        </mxCell>
        <mxCell id="aR3hp8k7o6PhgEnkCMsC-3" value="age" style="ellipse;whiteSpace=wrap;html=1;" parent="1" vertex="1">
          <mxGeometry x="-130" y="370" width="80" height="40" as="geometry" />
        </mxCell>
        <mxCell id="aR3hp8k7o6PhgEnkCMsC-5" value="" style="endArrow=none;html=1;rounded=0;entryX=0.5;entryY=1;entryDx=0;entryDy=0;exitX=0.25;exitY=0;exitDx=0;exitDy=0;" parent="1" source="HTFbjVCe_8qZXWkOA7UC-23" target="aR3hp8k7o6PhgEnkCMsC-1" edge="1">
          <mxGeometry width="50" height="50" relative="1" as="geometry">
            <mxPoint x="190" y="320" as="sourcePoint" />
            <mxPoint x="240" y="270" as="targetPoint" />
          </mxGeometry>
        </mxCell>
        <mxCell id="aR3hp8k7o6PhgEnkCMsC-6" value="" style="endArrow=none;html=1;rounded=0;entryX=1;entryY=0.5;entryDx=0;entryDy=0;exitX=0;exitY=0.5;exitDx=0;exitDy=0;" parent="1" source="HTFbjVCe_8qZXWkOA7UC-23" target="aR3hp8k7o6PhgEnkCMsC-2" edge="1">
          <mxGeometry width="50" height="50" relative="1" as="geometry">
            <mxPoint x="190" y="320" as="sourcePoint" />
            <mxPoint x="240" y="270" as="targetPoint" />
          </mxGeometry>
        </mxCell>
        <mxCell id="aR3hp8k7o6PhgEnkCMsC-7" value="" style="endArrow=none;html=1;rounded=0;exitX=0.25;exitY=1;exitDx=0;exitDy=0;entryX=0.5;entryY=0;entryDx=0;entryDy=0;" parent="1" source="HTFbjVCe_8qZXWkOA7UC-23" target="aR3hp8k7o6PhgEnkCMsC-3" edge="1">
          <mxGeometry width="50" height="50" relative="1" as="geometry">
            <mxPoint x="190" y="320" as="sourcePoint" />
            <mxPoint x="240" y="270" as="targetPoint" />
          </mxGeometry>
        </mxCell>
        <mxCell id="aR3hp8k7o6PhgEnkCMsC-12" value="grade" style="ellipse;whiteSpace=wrap;html=1;" parent="1" vertex="1">
          <mxGeometry x="314" y="60" width="80" height="40" as="geometry" />
        </mxCell>
        <mxCell id="aR3hp8k7o6PhgEnkCMsC-13" value="enroll" style="shape=rhombus;perimeter=rhombusPerimeter;whiteSpace=wrap;html=1;align=center;" parent="1" vertex="1">
          <mxGeometry x="294" y="140" width="120" height="50" as="geometry" />
        </mxCell>
        <mxCell id="aR3hp8k7o6PhgEnkCMsC-14" value="" style="endArrow=none;html=1;rounded=0;exitX=0.5;exitY=1;exitDx=0;exitDy=0;entryX=0.5;entryY=0;entryDx=0;entryDy=0;" parent="1" source="aR3hp8k7o6PhgEnkCMsC-12" target="aR3hp8k7o6PhgEnkCMsC-13" edge="1">
          <mxGeometry width="50" height="50" relative="1" as="geometry">
            <mxPoint x="324" y="330" as="sourcePoint" />
            <mxPoint x="374" y="140" as="targetPoint" />
          </mxGeometry>
        </mxCell>
        <mxCell id="aR3hp8k7o6PhgEnkCMsC-16" value="building" style="rounded=0;whiteSpace=wrap;html=1;" parent="1" vertex="1">
          <mxGeometry x="630" y="60" width="80" height="40" as="geometry" />
        </mxCell>
        <mxCell id="aR3hp8k7o6PhgEnkCMsC-20" value="affiliation" style="shape=rhombus;double=1;perimeter=rhombusPerimeter;whiteSpace=wrap;html=1;align=center;" parent="1" vertex="1">
          <mxGeometry x="610" y="120" width="120" height="60" as="geometry" />
        </mxCell>
        <mxCell id="aR3hp8k7o6PhgEnkCMsC-21" value="room_id" style="ellipse;whiteSpace=wrap;html=1;fontStyle=4" parent="1" vertex="1">
          <mxGeometry x="690" y="250" width="80" height="40" as="geometry" />
        </mxCell>
        <mxCell id="aR3hp8k7o6PhgEnkCMsC-22" value="size" style="ellipse;whiteSpace=wrap;html=1;" parent="1" vertex="1">
          <mxGeometry x="580" y="250" width="80" height="40" as="geometry" />
        </mxCell>
        <mxCell id="aR3hp8k7o6PhgEnkCMsC-23" value="room" style="shape=ext;margin=3;double=1;whiteSpace=wrap;html=1;align=center;" parent="1" vertex="1">
          <mxGeometry x="630" y="190" width="80" height="40" as="geometry" />
        </mxCell>
        <mxCell id="aR3hp8k7o6PhgEnkCMsC-24" value="" style="endArrow=none;html=1;rounded=0;entryX=0.5;entryY=0;entryDx=0;entryDy=0;exitX=0.75;exitY=1;exitDx=0;exitDy=0;" parent="1" source="aR3hp8k7o6PhgEnkCMsC-23" target="aR3hp8k7o6PhgEnkCMsC-21" edge="1">
          <mxGeometry width="50" height="50" relative="1" as="geometry">
            <mxPoint x="590" y="280" as="sourcePoint" />
            <mxPoint x="640" y="230" as="targetPoint" />
          </mxGeometry>
        </mxCell>
        <mxCell id="aR3hp8k7o6PhgEnkCMsC-25" value="" style="endArrow=none;html=1;rounded=0;entryX=0.5;entryY=0;entryDx=0;entryDy=0;exitX=0.25;exitY=1;exitDx=0;exitDy=0;" parent="1" source="aR3hp8k7o6PhgEnkCMsC-23" target="aR3hp8k7o6PhgEnkCMsC-22" edge="1">
          <mxGeometry width="50" height="50" relative="1" as="geometry">
            <mxPoint x="590" y="280" as="sourcePoint" />
            <mxPoint x="640" y="230" as="targetPoint" />
          </mxGeometry>
        </mxCell>
        <mxCell id="aR3hp8k7o6PhgEnkCMsC-28" value="located" style="shape=rhombus;perimeter=rhombusPerimeter;whiteSpace=wrap;html=1;align=center;" parent="1" vertex="1">
          <mxGeometry x="450" y="185" width="120" height="50" as="geometry" />
        </mxCell>
        <mxCell id="aR3hp8k7o6PhgEnkCMsC-29" value="" style="endArrow=none;html=1;rounded=0;exitX=1;exitY=0.25;exitDx=0;exitDy=0;entryX=0;entryY=0.5;entryDx=0;entryDy=0;startArrow=none;startFill=0;" parent="1" source="HTFbjVCe_8qZXWkOA7UC-20" target="aR3hp8k7o6PhgEnkCMsC-28" edge="1">
          <mxGeometry width="50" height="50" relative="1" as="geometry">
            <mxPoint x="560" y="270" as="sourcePoint" />
            <mxPoint x="610" y="220" as="targetPoint" />
          </mxGeometry>
        </mxCell>
        <mxCell id="aR3hp8k7o6PhgEnkCMsC-30" value="" style="endArrow=block;html=1;rounded=0;entryX=0;entryY=0.5;entryDx=0;entryDy=0;exitX=1;exitY=0.5;exitDx=0;exitDy=0;endFill=1;" parent="1" source="aR3hp8k7o6PhgEnkCMsC-28" target="aR3hp8k7o6PhgEnkCMsC-23" edge="1">
          <mxGeometry width="50" height="50" relative="1" as="geometry">
            <mxPoint x="570" y="200" as="sourcePoint" />
            <mxPoint x="700" y="190" as="targetPoint" />
          </mxGeometry>
        </mxCell>
        <mxCell id="aR3hp8k7o6PhgEnkCMsC-31" value="" style="endArrow=none;html=1;rounded=0;exitX=0.5;exitY=0;exitDx=0;exitDy=0;entryX=0.5;entryY=1;entryDx=0;entryDy=0;" parent="1" source="aR3hp8k7o6PhgEnkCMsC-23" target="aR3hp8k7o6PhgEnkCMsC-20" edge="1">
          <mxGeometry width="50" height="50" relative="1" as="geometry">
            <mxPoint x="650" y="240" as="sourcePoint" />
            <mxPoint x="700" y="190" as="targetPoint" />
          </mxGeometry>
        </mxCell>
        <mxCell id="aR3hp8k7o6PhgEnkCMsC-32" value="" style="endArrow=none;html=1;rounded=0;exitX=0.5;exitY=0;exitDx=0;exitDy=0;entryX=1;entryY=0.5;entryDx=0;entryDy=0;startArrow=none;startFill=0;endFill=0;entryPerimeter=0;" parent="1" source="aR3hp8k7o6PhgEnkCMsC-20" target="aR3hp8k7o6PhgEnkCMsC-76" edge="1">
          <mxGeometry width="50" height="50" relative="1" as="geometry">
            <mxPoint x="650" y="240" as="sourcePoint" />
            <mxPoint x="700" y="190" as="targetPoint" />
          </mxGeometry>
        </mxCell>
        <mxCell id="aR3hp8k7o6PhgEnkCMsC-33" value="teach" style="shape=rhombus;perimeter=rhombusPerimeter;whiteSpace=wrap;html=1;align=center;" parent="1" vertex="1">
          <mxGeometry x="294" y="475" width="120" height="50" as="geometry" />
        </mxCell>
        <mxCell id="aR3hp8k7o6PhgEnkCMsC-34" value="" style="endArrow=none;html=1;rounded=0;exitX=0.5;exitY=1;exitDx=0;exitDy=0;entryX=0.5;entryY=0;entryDx=0;entryDy=0;startArrow=none;startFill=0;" parent="1" source="HTFbjVCe_8qZXWkOA7UC-20" target="aR3hp8k7o6PhgEnkCMsC-33" edge="1">
          <mxGeometry width="50" height="50" relative="1" as="geometry">
            <mxPoint x="414" y="270" as="sourcePoint" />
            <mxPoint x="464" y="220" as="targetPoint" />
          </mxGeometry>
        </mxCell>
        <mxCell id="aR3hp8k7o6PhgEnkCMsC-35" value="" style="endArrow=none;html=1;rounded=0;exitX=1;exitY=0.5;exitDx=0;exitDy=0;entryX=0;entryY=0.5;entryDx=0;entryDy=0;startArrow=block;startFill=1;" parent="1" source="HTFbjVCe_8qZXWkOA7UC-10" target="aR3hp8k7o6PhgEnkCMsC-33" edge="1">
          <mxGeometry width="50" height="50" relative="1" as="geometry">
            <mxPoint x="390" y="270" as="sourcePoint" />
            <mxPoint x="440" y="220" as="targetPoint" />
          </mxGeometry>
        </mxCell>
        <mxCell id="aR3hp8k7o6PhgEnkCMsC-40" value="" style="endArrow=none;html=1;rounded=0;entryX=0.5;entryY=1;entryDx=0;entryDy=0;exitX=0.25;exitY=0;exitDx=0;exitDy=0;" parent="1" source="aR3hp8k7o6PhgEnkCMsC-16" target="aR3hp8k7o6PhgEnkCMsC-43" edge="1">
          <mxGeometry width="50" height="50" relative="1" as="geometry">
            <mxPoint x="370" y="160" as="sourcePoint" />
            <mxPoint x="610" as="targetPoint" />
          </mxGeometry>
        </mxCell>
        <mxCell id="aR3hp8k7o6PhgEnkCMsC-41" value="" style="endArrow=none;html=1;rounded=0;entryX=0.5;entryY=1;entryDx=0;entryDy=0;exitX=0.75;exitY=0;exitDx=0;exitDy=0;" parent="1" source="aR3hp8k7o6PhgEnkCMsC-16" target="aR3hp8k7o6PhgEnkCMsC-42" edge="1">
          <mxGeometry width="50" height="50" relative="1" as="geometry">
            <mxPoint x="370" y="160" as="sourcePoint" />
            <mxPoint x="730" as="targetPoint" />
          </mxGeometry>
        </mxCell>
        <mxCell id="aR3hp8k7o6PhgEnkCMsC-42" value="name" style="ellipse;whiteSpace=wrap;html=1;fontStyle=4" parent="1" vertex="1">
          <mxGeometry x="680" y="10" width="80" height="40" as="geometry" />
        </mxCell>
        <mxCell id="aR3hp8k7o6PhgEnkCMsC-43" value="location" style="ellipse;whiteSpace=wrap;html=1;" parent="1" vertex="1">
          <mxGeometry x="580" y="10" width="80" height="40" as="geometry" />
        </mxCell>
        <mxCell id="aR3hp8k7o6PhgEnkCMsC-44" value="student_id" style="ellipse;whiteSpace=wrap;html=1;fontStyle=4" parent="1" vertex="1">
          <mxGeometry x="42.42" y="90" width="80" height="40" as="geometry" />
        </mxCell>
        <mxCell id="aR3hp8k7o6PhgEnkCMsC-45" value="gpa" style="ellipse;whiteSpace=wrap;html=1;" parent="1" vertex="1">
          <mxGeometry x="160" y="50" width="80" height="40" as="geometry" />
        </mxCell>
        <mxCell id="aR3hp8k7o6PhgEnkCMsC-46" value="" style="endArrow=none;html=1;rounded=0;exitX=0;exitY=0;exitDx=0;exitDy=0;entryX=1;entryY=1;entryDx=0;entryDy=0;" parent="1" source="HTFbjVCe_8qZXWkOA7UC-1" target="aR3hp8k7o6PhgEnkCMsC-44" edge="1">
          <mxGeometry width="50" height="50" relative="1" as="geometry">
            <mxPoint x="300" y="270" as="sourcePoint" />
            <mxPoint x="350" y="220" as="targetPoint" />
          </mxGeometry>
        </mxCell>
        <mxCell id="aR3hp8k7o6PhgEnkCMsC-47" value="" style="endArrow=none;html=1;rounded=0;exitX=0.5;exitY=0;exitDx=0;exitDy=0;entryX=0.5;entryY=1;entryDx=0;entryDy=0;" parent="1" source="HTFbjVCe_8qZXWkOA7UC-1" target="aR3hp8k7o6PhgEnkCMsC-45" edge="1">
          <mxGeometry width="50" height="50" relative="1" as="geometry">
            <mxPoint x="300" y="270" as="sourcePoint" />
            <mxPoint x="350" y="220" as="targetPoint" />
          </mxGeometry>
        </mxCell>
        <mxCell id="aR3hp8k7o6PhgEnkCMsC-48" value="section_id" style="ellipse;whiteSpace=wrap;html=1;fontStyle=4" parent="1" vertex="1">
          <mxGeometry x="234" y="207" width="80" height="40" as="geometry" />
        </mxCell>
        <mxCell id="aR3hp8k7o6PhgEnkCMsC-49" value="semester" style="ellipse;whiteSpace=wrap;html=1;" parent="1" vertex="1">
          <mxGeometry x="160" y="250" width="80" height="40" as="geometry" />
        </mxCell>
        <mxCell id="aR3hp8k7o6PhgEnkCMsC-50" value="credit" style="ellipse;whiteSpace=wrap;html=1;" parent="1" vertex="1">
          <mxGeometry x="90" y="290" width="80" height="40" as="geometry" />
        </mxCell>
        <mxCell id="aR3hp8k7o6PhgEnkCMsC-51" value="capacity" style="ellipse;whiteSpace=wrap;html=1;" parent="1" vertex="1">
          <mxGeometry x="160" y="340" width="80" height="40" as="geometry" />
        </mxCell>
        <mxCell id="aR3hp8k7o6PhgEnkCMsC-52" value="" style="endArrow=none;html=1;rounded=0;exitX=0;exitY=0;exitDx=0;exitDy=0;entryX=0.5;entryY=1;entryDx=0;entryDy=0;" parent="1" source="HTFbjVCe_8qZXWkOA7UC-20" target="aR3hp8k7o6PhgEnkCMsC-48" edge="1">
          <mxGeometry width="50" height="50" relative="1" as="geometry">
            <mxPoint x="300" y="270" as="sourcePoint" />
            <mxPoint x="350" y="220" as="targetPoint" />
          </mxGeometry>
        </mxCell>
        <mxCell id="aR3hp8k7o6PhgEnkCMsC-53" value="" style="endArrow=none;html=1;rounded=0;exitX=0;exitY=0.25;exitDx=0;exitDy=0;entryX=1;entryY=0.5;entryDx=0;entryDy=0;" parent="1" source="HTFbjVCe_8qZXWkOA7UC-20" target="aR3hp8k7o6PhgEnkCMsC-49" edge="1">
          <mxGeometry width="50" height="50" relative="1" as="geometry">
            <mxPoint x="300" y="270" as="sourcePoint" />
            <mxPoint x="350" y="220" as="targetPoint" />
          </mxGeometry>
        </mxCell>
        <mxCell id="aR3hp8k7o6PhgEnkCMsC-54" value="" style="endArrow=none;html=1;rounded=0;exitX=0;exitY=0.5;exitDx=0;exitDy=0;entryX=1;entryY=0.5;entryDx=0;entryDy=0;" parent="1" source="HTFbjVCe_8qZXWkOA7UC-20" target="aR3hp8k7o6PhgEnkCMsC-50" edge="1">
          <mxGeometry width="50" height="50" relative="1" as="geometry">
            <mxPoint x="300" y="270" as="sourcePoint" />
            <mxPoint x="350" y="220" as="targetPoint" />
          </mxGeometry>
        </mxCell>
        <mxCell id="aR3hp8k7o6PhgEnkCMsC-55" value="" style="endArrow=none;html=1;rounded=0;exitX=1;exitY=0.5;exitDx=0;exitDy=0;entryX=0;entryY=0.75;entryDx=0;entryDy=0;" parent="1" source="aR3hp8k7o6PhgEnkCMsC-51" target="HTFbjVCe_8qZXWkOA7UC-20" edge="1">
          <mxGeometry width="50" height="50" relative="1" as="geometry">
            <mxPoint x="300" y="270" as="sourcePoint" />
            <mxPoint x="350" y="220" as="targetPoint" />
          </mxGeometry>
        </mxCell>
        <mxCell id="aR3hp8k7o6PhgEnkCMsC-56" value="office &lt;br&gt;address" style="ellipse;whiteSpace=wrap;html=1;" parent="1" vertex="1">
          <mxGeometry x="160" y="565" width="80" height="40" as="geometry" />
        </mxCell>
        <mxCell id="aR3hp8k7o6PhgEnkCMsC-57" value="faculty_id" style="ellipse;whiteSpace=wrap;html=1;fontStyle=4" parent="1" vertex="1">
          <mxGeometry x="42.42" y="530" width="80" height="40" as="geometry" />
        </mxCell>
        <mxCell id="aR3hp8k7o6PhgEnkCMsC-58" value="" style="endArrow=none;html=1;rounded=0;exitX=0.5;exitY=1;exitDx=0;exitDy=0;entryX=0.5;entryY=0;entryDx=0;entryDy=0;" parent="1" source="HTFbjVCe_8qZXWkOA7UC-10" target="aR3hp8k7o6PhgEnkCMsC-56" edge="1">
          <mxGeometry width="50" height="50" relative="1" as="geometry">
            <mxPoint x="240" y="380" as="sourcePoint" />
            <mxPoint x="290" y="330" as="targetPoint" />
          </mxGeometry>
        </mxCell>
        <mxCell id="aR3hp8k7o6PhgEnkCMsC-59" value="" style="endArrow=none;html=1;rounded=0;exitX=0;exitY=1;exitDx=0;exitDy=0;entryX=1;entryY=0;entryDx=0;entryDy=0;" parent="1" source="HTFbjVCe_8qZXWkOA7UC-10" target="aR3hp8k7o6PhgEnkCMsC-57" edge="1">
          <mxGeometry width="50" height="50" relative="1" as="geometry">
            <mxPoint x="240" y="380" as="sourcePoint" />
            <mxPoint x="290" y="330" as="targetPoint" />
          </mxGeometry>
        </mxCell>
        <mxCell id="aR3hp8k7o6PhgEnkCMsC-60" value="time" style="ellipse;whiteSpace=wrap;html=1;" parent="1" vertex="1">
          <mxGeometry x="234" y="390" width="80" height="40" as="geometry" />
        </mxCell>
        <mxCell id="aR3hp8k7o6PhgEnkCMsC-61" value="" style="endArrow=none;html=1;rounded=0;exitX=0;exitY=1;exitDx=0;exitDy=0;entryX=0.5;entryY=0;entryDx=0;entryDy=0;" parent="1" source="HTFbjVCe_8qZXWkOA7UC-20" target="aR3hp8k7o6PhgEnkCMsC-60" edge="1">
          <mxGeometry width="50" height="50" relative="1" as="geometry">
            <mxPoint x="300" y="380" as="sourcePoint" />
            <mxPoint x="350" y="330" as="targetPoint" />
          </mxGeometry>
        </mxCell>
        <mxCell id="aR3hp8k7o6PhgEnkCMsC-62" value="course" style="rounded=0;whiteSpace=wrap;html=1;" parent="1" vertex="1">
          <mxGeometry x="630" y="405" width="80" height="40" as="geometry" />
        </mxCell>
        <mxCell id="aR3hp8k7o6PhgEnkCMsC-63" value="has" style="shape=rhombus;perimeter=rhombusPerimeter;whiteSpace=wrap;html=1;align=center;" parent="1" vertex="1">
          <mxGeometry x="450" y="400" width="120" height="50" as="geometry" />
        </mxCell>
        <mxCell id="aR3hp8k7o6PhgEnkCMsC-64" value="" style="endArrow=none;html=1;rounded=0;exitX=1;exitY=0.75;exitDx=0;exitDy=0;entryX=0;entryY=0.5;entryDx=0;entryDy=0;startArrow=none;startFill=0;" parent="1" source="HTFbjVCe_8qZXWkOA7UC-20" target="aR3hp8k7o6PhgEnkCMsC-63" edge="1">
          <mxGeometry width="50" height="50" relative="1" as="geometry">
            <mxPoint x="410" y="310" as="sourcePoint" />
            <mxPoint x="460" y="260" as="targetPoint" />
          </mxGeometry>
        </mxCell>
        <mxCell id="aR3hp8k7o6PhgEnkCMsC-65" value="" style="endArrow=block;html=1;rounded=0;exitX=1;exitY=0.5;exitDx=0;exitDy=0;entryX=0;entryY=0.5;entryDx=0;entryDy=0;endFill=1;" parent="1" source="aR3hp8k7o6PhgEnkCMsC-63" target="aR3hp8k7o6PhgEnkCMsC-62" edge="1">
          <mxGeometry width="50" height="50" relative="1" as="geometry">
            <mxPoint x="410" y="310" as="sourcePoint" />
            <mxPoint x="460" y="260" as="targetPoint" />
          </mxGeometry>
        </mxCell>
        <mxCell id="aR3hp8k7o6PhgEnkCMsC-66" value="course_id" style="ellipse;whiteSpace=wrap;html=1;fontStyle=4" parent="1" vertex="1">
          <mxGeometry x="690" y="340" width="80" height="40" as="geometry" />
        </mxCell>
        <mxCell id="aR3hp8k7o6PhgEnkCMsC-67" value="name" style="ellipse;whiteSpace=wrap;html=1;" parent="1" vertex="1">
          <mxGeometry x="580" y="340" width="80" height="40" as="geometry" />
        </mxCell>
        <mxCell id="aR3hp8k7o6PhgEnkCMsC-70" value="" style="endArrow=none;html=1;rounded=0;entryX=0.25;entryY=0;entryDx=0;entryDy=0;exitX=0.5;exitY=1;exitDx=0;exitDy=0;" parent="1" source="aR3hp8k7o6PhgEnkCMsC-67" target="aR3hp8k7o6PhgEnkCMsC-62" edge="1">
          <mxGeometry width="50" height="50" relative="1" as="geometry">
            <mxPoint x="410" y="380" as="sourcePoint" />
            <mxPoint x="460" y="330" as="targetPoint" />
          </mxGeometry>
        </mxCell>
        <mxCell id="aR3hp8k7o6PhgEnkCMsC-71" value="" style="endArrow=none;html=1;rounded=0;entryX=0.75;entryY=0;entryDx=0;entryDy=0;exitX=0.5;exitY=1;exitDx=0;exitDy=0;" parent="1" source="aR3hp8k7o6PhgEnkCMsC-66" target="aR3hp8k7o6PhgEnkCMsC-62" edge="1">
          <mxGeometry width="50" height="50" relative="1" as="geometry">
            <mxPoint x="410" y="380" as="sourcePoint" />
            <mxPoint x="460" y="330" as="targetPoint" />
          </mxGeometry>
        </mxCell>
        <mxCell id="aR3hp8k7o6PhgEnkCMsC-72" value="website" style="rounded=0;whiteSpace=wrap;html=1;" parent="1" vertex="1">
          <mxGeometry x="630" y="560" width="80" height="40" as="geometry" />
        </mxCell>
        <mxCell id="aR3hp8k7o6PhgEnkCMsC-73" value="link" style="shape=rhombus;perimeter=rhombusPerimeter;whiteSpace=wrap;html=1;align=center;" parent="1" vertex="1">
          <mxGeometry x="610" y="475" width="120" height="50" as="geometry" />
        </mxCell>
        <mxCell id="aR3hp8k7o6PhgEnkCMsC-74" value="" style="endArrow=none;html=1;rounded=0;exitX=0.5;exitY=1;exitDx=0;exitDy=0;entryX=0.5;entryY=0;entryDx=0;entryDy=0;startArrow=block;startFill=1;" parent="1" source="aR3hp8k7o6PhgEnkCMsC-62" target="aR3hp8k7o6PhgEnkCMsC-73" edge="1">
          <mxGeometry width="50" height="50" relative="1" as="geometry">
            <mxPoint x="340" y="400" as="sourcePoint" />
            <mxPoint x="390" y="350" as="targetPoint" />
          </mxGeometry>
        </mxCell>
        <mxCell id="aR3hp8k7o6PhgEnkCMsC-75" value="" style="endArrow=none;html=1;rounded=0;exitX=0.5;exitY=0;exitDx=0;exitDy=0;entryX=0.5;entryY=1;entryDx=0;entryDy=0;endFill=0;startArrow=block;startFill=1;" parent="1" source="aR3hp8k7o6PhgEnkCMsC-72" target="aR3hp8k7o6PhgEnkCMsC-73" edge="1">
          <mxGeometry width="50" height="50" relative="1" as="geometry">
            <mxPoint x="340" y="400" as="sourcePoint" />
            <mxPoint x="390" y="350" as="targetPoint" />
          </mxGeometry>
        </mxCell>
        <mxCell id="aR3hp8k7o6PhgEnkCMsC-76" value="" style="shape=requiredInterface;html=1;verticalLabelPosition=bottom;sketch=0;rotation=-90;" parent="1" vertex="1">
          <mxGeometry x="665" y="95" width="10" height="20" as="geometry" />
        </mxCell>
        <mxCell id="r8OluOCh1xsfSbsimUey-1" value="is a" style="text;html=1;strokeColor=none;fillColor=none;align=center;verticalAlign=middle;whiteSpace=wrap;rounded=0;" vertex="1" parent="1">
          <mxGeometry x="58.42" y="217" width="60" height="30" as="geometry" />
        </mxCell>
        <mxCell id="r8OluOCh1xsfSbsimUey-2" value="is a" style="text;html=1;strokeColor=none;fillColor=none;align=center;verticalAlign=middle;whiteSpace=wrap;rounded=0;" vertex="1" parent="1">
          <mxGeometry x="50.42" y="382" width="60" height="30" as="geometry" />
        </mxCell>
      </root>
    </mxGraphModel>
  </diagram>
</mxfile>
